<svg xmlns="http://www.w3.org/2000/svg" viewBox="0 0 2906.9 3019.8" xml:space="preserve"><path fill="none" stroke="#FFF" stroke-width="14.173" stroke-linecap="round" stroke-miterlimit="10" d="M7.4 7.1 7.1 859l1444 2148.1L2899.9 859.2V7.1H7.4zm67.4 821.4 1377.3 2049.9L74.8 828.5zM70.7 73.9h2765.5H70.7z"/><path fill-rule="evenodd" clip-rule="evenodd" fill="#FFF" d="M7.4 7.1 7.1 859l1444 2148.1L2899.9 859.2V7.1H7.4zm67.4 821.4 1377.3 2049.9L74.8 828.5zM70.7 73.9h2765.5H70.7z"/><path fill="#365BA2" d="M241.4 285.5h140.2v-59.7H156.2v418.1h85.3V471.3h109.9v-59.7h-110V285.5zm264.3 36.4c0-29.9 17-41.2 44.1-41.2S594 292 594 321.9v225.8c0 29.9-17.2 41.3-44.2 41.3-27.1 0-44.1-11.5-44.1-41.3V321.9zm-85.2 221.6c0 67 45.6 105.3 129.3 105.3 83.7 0 129.3-38.3 129.3-105.3V326.2c0-67-45.6-105.1-129.3-105.1-83.7 0-129.3 38.1-129.3 105.1v217.3zm583.3 100.4c-8.5-15.5-9.2-30.4-9.2-50.8v-64.5c0-43.7-14-74.7-56.7-88.4V439c38-13.8 55.8-41.2 55.8-84.2v-32.9c0-64.5-38-96.2-126.3-96.2H738.9v418.1h85.3V473.6h29.4c38.8 0 55.8 14.3 55.8 53.1v65.8c0 34.1 3.1 40.7 7.7 51.3h86.7zM865.1 285.5c30.3 0 43.4 13.2 43.4 43v41.2c0 33.4-19.2 44.2-51.1 44.2H824V285.5h41.1zm165.3 0h89v358.4h85.3V285.5h89v-59.7h-263.3v59.7zm464.9-59.7h-124.7l-86.8 418.1h78.3l14.6-75.8h104.7l14.6 75.8h85.9l-86.6-418.1zm-67.5 74h1.7l40.2 211.4h-82l40.1-211.4zm198.4 344.1h225.5v-59.7h-140.2V225.8h-85.3v418.1zm352.6-358.4H2126v-59.7h-232.3v418.1H2126v-59.7h-147.2V461.6h117.1v-59.7h-117.1V285.5zm199.3-59.7v59.7h154.2l-162 299.8v58.5h249.5v-59.7H2258l161.8-299.8v-58.5h-241.7zm485.9 0h-124.7l-86.8 418.1h78.3l14.6-75.8H2650l14.6 75.8h86.1L2664 225.8zm-67.4 74h1.5l40.2 211.4h-82l40.3-211.4z"/><path fill-rule="evenodd" clip-rule="evenodd" fill="#365BA2" d="M7.4 7.1 7.1 859l1444 2148.1L2899.9 859.2V7.1H7.4zm67.4 821.4 2759.3-2.4-1382 2052.2L74.8 828.5zM2836.2 781H70.7V73.9h2765.5V781z"/><path fill-rule="evenodd" clip-rule="evenodd" fill="#C2262A" d="M1505.5 2649.6V913.5l1171.1-.7z"/><path fill-rule="evenodd" clip-rule="evenodd" fill="#365BA2" d="M1401.4 2649.6V913.5l-1171.2-.7z"/></svg>