<svg version="1.1" id="svg2" xmlns="http://www.w3.org/2000/svg" x="0" y="0" viewBox="0 0 1258.3 1500" style="enable-background:new 0 0 1258.3 1500" xml:space="preserve"><style>.st0{fill:#1f1a17}.st1{fill:#fff}.st2{fill:#0d80bf}</style><g transform="matrix(.02766 0 0 .02766 -41.33 -113.45)"><path id="path9" class="st0" d="M46978.6 35580.8c0 12560.2-10182.1 22742.3-22742.3 22742.3S1494 48141 1494 35580.8s10182.1-22742.3 22742.3-22742.3 22742.3 10182.1 22742.3 22742.3z"/><path id="path11" class="st1" d="M45931.7 35580.8c0 11981.4-9714 21695.4-21695.4 21695.4s-21695.4-9714-21695.4-21695.4c0-11983.9 9714-21695.4 21695.4-21695.4s21695.4 9711.5 21695.4 21695.4z"/><path id="path13" class="st2" d="M18065.6 55101.9c1947.8 614 4019 948.7 6170.6 948.7 2149.2 0 4222.8-334.7 6168.1-948.7-1741.5-1343.9-3870.5-2139.1-6168.1-2139.1-2300.1 0-4429.1 795.2-6170.6 2139.1z"/><path id="path15" class="st2" d="M30404.4 16057.2c-1945.3-614-4019-946.2-6168.1-946.2-2151.7 0-4222.8 332.2-6170.6 946.2 1741.5 1346.4 3870.5 2141.6 6170.6 2141.6 2297.6 0 4426.6-795.2 6168.1-2141.6z"/><path id="path17" class="st2" d="M32088 27550.4c3002.3-1102.3 5705.1-2811 7952.4-4980.3-2249.8-2730.5-5194.2-4862-8561.4-6137.9-1132.5 973.9-2436 1723.9-3855.4 2191.9 2295.1 1663.5 3991.3 4962.7 4464.4 8926.3z"/><path id="path19" class="st2" d="M20846.5 18624.1c-1416.8-468.1-2722.9-1218-3852.9-2191.9-3367.2 1275.9-6311.6 3407.4-8561.4 6137.9 2244.8 2169.3 4950.1 3878 7949.9 4980.3 475.6-3963.6 2171.8-7262.8 4464.4-8926.3z"/><path id="path21" class="st2" d="M16382.1 43608.7c-2999.8 1102.3-5705.1 2813.5-7949.9 4982.8 2249.8 2728 5194.2 4862 8561.4 6135.4 1129.9-973.9 2436-1723.9 3852.9-2191.9-2292.6-1663.5-3988.8-4962.7-4464.4-8926.3z"/><path id="path23" class="st2" d="M32088 43608.7c-473.1 3963.6-2169.3 7262.8-4464.4 8926.3 1419.3 468.1 2722.9 1218 3855.4 2191.9 3367.2-1273.4 6311.6-3407.4 8561.4-6135.4-2247.3-2169.3-4950.1-3880.6-7952.4-4982.8z"/><path id="path25" class="st0" d="M40641.8 47826.5c2551.8-3415 4064.3-7655.4 4064.3-12245.6 0-4592.7-1512.5-8830.7-4064.3-12245.6-4245.5 4066.8-10033.6 6578.3-16405.5 6578.3-6374.5 0-12160.1-2511.5-16405.5-6578.3-2551.8 3415-4064.3 7652.9-4064.3 12245.6 0 4590.2 1512.5 8830.7 4064.3 12245.6 4245.5-4066.8 10031.1-6580.8 16405.5-6580.8 6371.9-.1 12160.1 2514 16405.5 6580.8z"/><path id="path27" class="st0" d="M27930.6 25049c224-73 427.8-304.5 427.8-674.4 0-224-60.4-407.7-203.8-551.1-143.4-143.4-327.2-203.8-591.4-203.8-528.5 0-717.2 302-878.3 510.9l367.4 244.1c161.1-203.8 329.7-264.2 430.3-264.2 181.2 0 344.8 151 344.8 344.8 0 143.4-50.3 239.1-140.9 327.2-75.5 70.5-186.2 123.3-347.3 123.3h-143.4v427.8h203.8c163.6 0 289.4 37.8 367.4 143.4 62.9 85.6 123.3 186.2 123.3 387.6 0 382.5-226.5 447.9-390.1 447.9-105.7 0-181.2-10.1-244.1-60.4-78-62.9-143.4-163.6-183.7-264.2l-468.1 183.7c60.4 203.8 163.6 367.4 327.2 468.1 140.9 103.2 344.8 163.6 591.4 163.6 264.2 0 488.2-80.5 651.8-244.1 163.6-183.7 246.6-407.7 246.6-714.7 0-224.3-75.5-664.7-490.7-795.5z"/><path id="path29" class="st0" d="M23949.4 24965.9c0 591.4-100.7 1062-284.4 1369-143.4 244.1-347.3 405.2-614 468.1-65.4 15.1-153.5 20.1-224 20.1-166.1 0-307-42.8-488.2-163.6l183.7-407.7c95.6 45.3 221.5 83 324.6 83 125.8 0 244.1-60.4 347.3-183.7 103.2-123.3 163.6-327.2 203.8-593.9-113.2 93.1-183.7 183.7-448 183.7-224 0-407.7-80.5-551.1-264.2-143.4-183.7-203.8-427.8-203.8-734.8 0-367.4 80.5-631.7 224-815.4 143.4-183.7 367.4-286.9 631.7-307h22.6c304.5 0 528.5 123.3 671.9 347.3 143.5 224 203.9 551.2 203.9 999.1zm-898.4 307c130.9 0 203.8-67.9 246.6-163.6 45.3-100.7 60.4-244.1 60.4-427.8 0-183.7-15.1-337.2-60.4-430.3-55.4-105.7-143.4-140.9-246.6-140.9-83 0-178.7 47.8-224 140.9-55.4 120.8-80.5 284.4-80.5 430.3 0 294.5 85.5 591.4 304.5 591.4z"/><path id="path31" class="st0" d="M20091.5 23926.6v407.7l551.1-163.6v2081.2h-591.4v470.6h1673.5v-470.6h-551.1V23680l-1082.1 246.6z"/><path id="path33" class="st0" d="M27726.8 45010.4h-634.2l-755 3060.2h510.9l183.7-755h714.7l163.6 755h571.3l-755-3060.2zm-591.4 1817 183.7-898.4 65.4-347.3h7.6l62.9 327.2 188.7 918.6h-508.3z"/><path id="path35" class="st0" d="M19990.8 45050.7v3019.9h571.3v-1306.1h775.1v-488.2h-775.1v-734.8h1122.4v-490.7h-1693.7z"/><path id="path37" class="st1" d="M21649.2 30046.9s1094.7 20.1 1142.5 22.6c22.6 40.3 898.4 1683.6 958.8 1796.8h-646.8l-878.3-1127.4-928.6 1142.5s-508.3-12.6-616.6-15.1c58-108.2 969-1819.4 969-1819.4z"/><path id="path39" class="st1" d="M37093.5 39184.6c-664.4-704.6-989-1638.3-989-2848.8 0-1208 332.2-2174.3 989-2871.4 636.7-694.6 1527.6-1046.9 2644.9-1046.9s2008.2 352.3 2642.4 1046.9c666.9 707.2 991.5 1645.8 991.5 2871.4 0 1210.5-324.6 2144.1-991.5 2848.8-629.1 689.5-1517.5 1049.4-2642.4 1069.5-1107.3 0-1995.7-359.9-2644.9-1069.5zm1061.9-4814.3c-377.5 483.2-561.2 1124.9-561.2 1965.4 0 825.4 183.7 1462.1 561.2 1942.8 372.5 478.1 890.9 709.7 1582.9 709.7s1210.5-231.5 1582.9-709.7c377.5-480.7 558.7-1117.4 558.7-1942.8 0-840.5-181.2-1482.3-558.7-1965.4-380-463.1-895.9-687-1582.9-687-664.3 0-1182.7 224-1582.9 687z"/><path id="path41" class="st1" d="M35492.9 32621.3v7408.8h-1469.7v-7408.8h1469.7z"/><path id="path43" class="st1" d="M33064.4 32621.3v7408.8h-1369v-6002l-80.5-10.1s-1507.4 5951.7-1522.5 6012.1H28585c-15.1-60.4-1542.7-6012.1-1542.7-6012.1l-80.5 10.1v6002h-1369v-7408.8h2214.6c15.1 60.4 1520 5815.8 1520 5815.8s1507.4-5755.4 1522.5-5815.8h2214.5z"/><path id="path45" class="st1" d="M24878 32621.3v1202.9h-3918.3v1693.7h3593.7v1205.4h-3593.7V38724h4122.1v1306.1h-5551.6v-7408.8H24878z"/><path id="path47" class="st1" d="M16407.2 32621.3c817.9 0 1419.3 168.6 1789.3 498.3 380 339.7 578.8 885.8 578.8 1582.9 0 430.3-95.6 817.9-279.3 1122.4-171.1 284.4-445.4 490.7-815.4 614l-120.8 40.3 120.8 37.7c314.6 98.1 553.6 276.8 692.1 513.4 130.9 203.8 198.8 538.5 218.9 1082.1l40.3 918.6c22.6 463.1 113.2 719.7 286.9 833v166.1h-1625.7c-55.4-118.3-83-211.4-105.7-307-27.7-120.8-57.9-274.3-65.4-591.4l-20.1-797.8c-20.1-490.7-108.2-797.8-276.8-966.4-148.5-168.6-440.4-256.7-865.7-256.7h-1693.7V40030H12796v-7408.8c77.9.1 3611.2.1 3611.2.1zm-2101.3 1203h-40.3v2063.6h1857.2c402.7 0 714.7-88.1 903.4-254.2 186.2-146 279.3-410.2 279.3-787.7 0-327.2-90.6-576.3-276.8-765-191.3-168.6-468.1-256.7-825.4-256.7h-1897.4z"/><path id="path49" class="st1" d="M6069.1 39166.9c-641.7-704.6-968.9-1663.5-968.9-2851.3 0-1192.9 317.1-2116.4 968.9-2831.1 629.1-709.7 1489.8-1067 2561.9-1067 946.2 0 1691.1 216.4 2282.5 664.4 583.8 463 928.6 1064.5 1034.3 1784.3H10453c-98.1-339.7-309.5-656.8-591.4-870.7-297-221.5-689.5-334.7-1167.7-334.7-651.8 0-1150.1 234-1522.5 709.7v2.5c-359.9 483.2-541.1 1129.9-541.1 1922.7 0 825.4 183.7 1462.1 561.2 1942.8 400.1 485.7 931.1 729.8 1582.9 729.8 513.4 0 923.6-151 1253.3-460.5 327.2-266.8 538.5-671.9 624.1-1205.4l7.5-47.8H8958.1v-1205.4H11978v3981.2h-966.4c-12.6-60.4-196.3-936.2-196.3-936.2l-52.8 75.5c-264.2 364.9-581.3 641.7-943.7 822.9-327.2 173.6-739.9 261.7-1228.1 261.7-1031.8-.2-1879.8-365.1-2521.6-1087.4z"/><path id="path51" d="m24236.3 4101 906 2788.4h2929.3L25701 8610.7l906 2785.8-2370.6-1721.3-2370.6 1721.3 906-2785.8L20401 6889.4h2929.3l906-2788.4z" style="fill:#abaaaa"/><path id="path53" d="m12483.9 6126.8 906 2785.8h2929.3l-2370.6 1723.9 906 2785.8L12484 11701l-2370.6 1721.3 906-2785.8-2370.8-1723.8h2931.8l903.5-2785.9z" style="fill:#93754f"/><path id="path55" d="m35986.2 6126.8 906 2785.8h2929.3l-2368.1 1723.9 903.4 2785.8-2370.6-1721.3-2368.1 1721.3 903.4-2785.8-2368.1-1723.9h2929.3l903.5-2785.8z" style="fill:#f8c300"/><path id="path57" class="st0" d="M23317.7 46460c183.7 60.4 327.2 140.9 427.8 284.4 103.2 143.4 143.4 307 143.4 510.9 0 264.2-78 473.1-264.2 611.5-176.2 130.9-405.2 203.8-641.7 203.8h-870.7v-3019.9h898.4c437.9 0 775.1 266.8 775.1 734.8 0 163.6-40.3 307-120.8 427.8-78 118.3-203.8 196.3-347.3 246.7zm-450.4-958.8h-183.7v775.1h183.7c236.6 0 367.4-181.2 367.4-407.7 0-294.5-130.9-367.4-367.4-367.4zm450.4 1693.6c0-193.8-57.9-304.5-133.4-375-80.5-73-234-95.6-337.2-95.6h-163.6v898.4h299.5c146 0 334.7-90.6 334.7-427.8z"/><path id="path59" class="st0" d="M24440.1 45050.7v3019.9h571.3v-1142.5h264.2c246.6-20.1 450.5-100.7 614-244.1 183.7-183.7 264.2-407.7 264.2-714.7 0-307-80.5-531-244.1-694.6-143.4-143.4-367.4-224-634.2-224h-835.4zm1114.9 918.5c0 349.8-158.5 531-400.1 531h-143.4v-999.1h143.4c208.8.1 400.1 93.2 400.1 468.1z"/><path id="path61" class="st0" d="M24644 24047.4c-163.6 266.8-244.1 674.4-244.1 1185.3 0 508.3 80.5 895.9 244.1 1162.7 163.6 264.2 387.6 407.7 694.6 407.7s531-143.4 694.6-407.7c161.1-266.8 244.1-654.3 244.1-1162.7 0-510.9-83-918.5-244.1-1185.3-163.6-284.4-387.6-427.8-694.6-427.8-307.1-.1-531.1 143.4-694.6 427.8zm1062 1185.3c0 377.5-20.1 682-83 845.6-60.4 156-143.4 234-284.4 234-143.4 0-226.5-78-286.9-234-60.4-163.6-80.5-468.1-80.5-845.6 0-395.1 20.1-709.7 80.5-878.3 60.4-163.6 143.4-244.1 286.9-244.1 143.4 0 226.5 80.5 284.4 244.1 62.8 168.6 83 483.2 83 878.3z"/></g></svg>