<svg version="1.1" id="svg2" xmlns="http://www.w3.org/2000/svg" x="0" y="0" viewBox="0 0 1501.6 1496.1" style="enable-background:new 0 0 1501.6 1496.1" xml:space="preserve"><style>.st1{fill-rule:evenodd;clip-rule:evenodd}</style><g id="layer1"><g id="g3355" transform="matrix(1.58438 0 0 1.58438 -104.875 -536.588)"><path id="path2507" d="M66.7 339.2h946.7V705L540 1282.1 66.7 705V339.2z" style="fill-rule:evenodd;clip-rule:evenodd;fill:#fff;stroke:#000;stroke-width:1.5779"/><path id="rect3279" class="st1" d="M112.9 389.7h854.3v249.7H112.9z"/><path id="path3281" d="M114.8 684.3h350.8v430l-350.8-430z" style="fill-rule:evenodd;clip-rule:evenodd;fill:#fe0000"/><path id="path3283" class="st1" d="M963.5 684.3H612.7v430l350.8-430z"/><path id="path3338" d="M792.9 431.5c-26.6 0-31.7 15-31.7 24.5v114.2c-.9 20 15.4 30.1 30.4 30.1H877c18.4 0 37.5-10.1 37.5-32.6v-32.1h-40.1v11.3c1.1 8.5-3 14.3-9.4 14h-53.9c-7.9.5-15.3.6-13.3-10v-74c1.6-5.2-4-12.7 11.3-13.3h58c3.5 1.9 8.7-1.5 8.7 10.7l.6 13.3h37.4v-31.8c0-18.5-15.9-24.3-30.3-24.3h-90.6zm-311.9 0H363.7V599h40.7v-61.8h76.2c15.9 0 33-7.6 33-29v-48.7c.1-13.4-10.3-27.7-32.6-28zm-292.6 0c-15.7 1.2-22.3 8.5-22 21.3v55.4c0 9.9 9 19.3 32.4 19.3h71c3.4 0 5.3 1.7 5.3 7v17.8c0 5.3-1.9 9.3-6.3 9.3h-103v35.9h125.1c18.6 0 25.6-9.5 25.6-22.6v-60.7c0-22.6-27.7-21.3-37.9-21.3h-63.7c-5.7.6-11.2-4.8-10.7-10.4v-11.9c-.6-4.4 3.6-7.7 9.2-7.6l103.2-.1v-31.3H188.4zm375.4 0v168H601v-62.7h84v-36.6h-83.3v-37.4h112.1v-31.3h-150zm-159.3 36.8H467c4.6 0 9.9.3 9.9 9.3V493c0 9.2-4.8 9.6-9.7 9.6h-62.6v-34.3z" style="fill-rule:evenodd;clip-rule:evenodd;fill:#fff"/></g></g></svg>